<?xml version="1.0" encoding="UTF-8" standalone="no"?>
<!DOCTYPE svg PUBLIC "-//W3C//DTD SVG 1.1//EN" "http://www.w3.org/Graphics/SVG/1.1/DTD/svg11.dtd">
<svg width="100%" height="100%" viewBox="0 0 32 35" version="1.1" xmlns="http://www.w3.org/2000/svg" xmlns:xlink="http://www.w3.org/1999/xlink" xml:space="preserve" xmlns:serif="http://www.serif.com/" style="fill-rule:evenodd;clip-rule:evenodd;stroke-linejoin:round;stroke-miterlimit:2;">
    <g transform="matrix(1.60413,0,0,1.60413,-5.0577,-9.58578)">
        <g id="Слой_x0020_1">
            <g>
                <g transform="matrix(1.36069,0,0,1.36069,-1607.29,-378.572)">
                    <g transform="matrix(10.5723,0,0,10.5723,1182.85,290.916)">
                        <rect x="0.102" y="-0.646" width="0.046" height="0.646" style="fill:rgb(29,163,221);fill-rule:nonzero;"/>
                    </g>
                    <g transform="matrix(10.5723,0,0,10.5723,1185.5,290.916)">
                        <path d="M0.537,-0L0.587,-0L0.299,-0.672L0.296,-0.672L0.012,-0L0.061,-0L0.142,-0.195L0.455,-0.195L0.537,-0ZM0.16,-0.238L0.297,-0.569L0.437,-0.238L0.16,-0.238Z" style="fill:rgb(29,163,221);fill-rule:nonzero;"/>
                    </g>
                    <g transform="matrix(10.5723,0,0,10.5723,1191.82,290.916)">
                        <path d="M0.551,-0.646L0.551,-0.111L0.103,-0.659L0.102,-0.659L0.102,-0L0.147,-0L0.147,-0.538L0.595,0.01L0.596,0.01L0.596,-0.646L0.551,-0.646Z" style="fill:rgb(29,163,221);fill-rule:nonzero;"/>
                    </g>
                </g>
                <g transform="matrix(1,0,0,1,-1180.26,-264.859)">
                    <g transform="matrix(10.5723,0,0,10.5723,1182.85,290.916)">
                        <path d="M0.368,0.01C0.475,0.01 0.569,-0.036 0.629,-0.141L0.594,-0.164C0.543,-0.077 0.466,-0.033 0.368,-0.033C0.213,-0.033 0.1,-0.158 0.1,-0.323C0.099,-0.489 0.212,-0.615 0.368,-0.615C0.465,-0.615 0.542,-0.572 0.59,-0.486L0.625,-0.51C0.564,-0.614 0.476,-0.658 0.368,-0.658C0.186,-0.658 0.053,-0.513 0.053,-0.323C0.053,-0.13 0.179,0.01 0.368,0.01Z" style="fill:rgb(29,163,221);fill-rule:nonzero;"/>
                    </g>
                    <g transform="matrix(10.5723,0,0,10.5723,1189.87,290.916)">
                        <path d="M0.368,0.01C0.553,0.01 0.686,-0.135 0.686,-0.324C0.686,-0.512 0.563,-0.658 0.368,-0.658C0.184,-0.658 0.051,-0.512 0.051,-0.324C0.051,-0.135 0.174,0.01 0.368,0.01ZM0.368,-0.033C0.21,-0.033 0.098,-0.16 0.098,-0.324C0.097,-0.489 0.21,-0.615 0.368,-0.615C0.527,-0.615 0.638,-0.489 0.638,-0.324C0.638,-0.16 0.527,-0.033 0.368,-0.033Z" style="fill:rgb(29,163,221);fill-rule:nonzero;"/>
                    </g>
                    <g transform="matrix(10.5723,0,0,10.5723,1197.4,290.916)">
                        <path d="M0.564,-0L0.318,-0.333L0.548,-0.645L0.493,-0.645L0.289,-0.366L0.086,-0.645L0.03,-0.645L0.256,-0.334L0.013,-0L0.069,-0L0.286,-0.299L0.507,-0L0.564,-0Z" style="fill:rgb(29,163,221);fill-rule:nonzero;"/>
                    </g>
                </g>
            </g>
        </g>
    </g>
</svg>
