<?xml version="1.0" encoding="UTF-8" standalone="no"?>
<!DOCTYPE svg PUBLIC "-//W3C//DTD SVG 1.1//EN" "http://www.w3.org/Graphics/SVG/1.1/DTD/svg11.dtd">
<svg width="100%" height="100%" viewBox="0 0 14 9" version="1.1" xmlns="http://www.w3.org/2000/svg" xmlns:xlink="http://www.w3.org/1999/xlink" xml:space="preserve" xmlns:serif="http://www.serif.com/" style="fill-rule:evenodd;clip-rule:evenodd;stroke-linejoin:round;stroke-miterlimit:2;">
    <g transform="matrix(1,0,0,1,-1354.66,-176.119)">
        <g transform="matrix(0.0130472,0,0,0.0130472,1354.66,175.86)">
            <path d="M150.975,345.84C203.9,345.84 250.823,329.136 273.594,304.242L232.464,222.315C215.793,243.199 191.349,254.845 162.715,254.845C123.017,254.845 99.199,229.137 99.667,180.676C100.102,135.134 121.408,112.146 147.136,112.146C171.959,112.146 182.096,135.134 176.351,169.334L263.777,169.334C276.859,46.208 208.501,19.849 157.063,19.849C66.733,19.849 0,77.914 0,182.411C0,284.613 56.658,345.84 150.975,345.84Z" style="fill:rgb(46,64,87);fill-rule:nonzero;"/>
        </g>
        <g transform="matrix(0.0130472,0,0,0.0130472,1354.66,175.86)">
            <rect x="282.741" y="122.172" width="90.562" height="207.626" style="fill:rgb(46,64,87);"/>
        </g>
        <g transform="matrix(0.0130472,0,0,0.0130472,1354.66,175.86)">
            <rect x="620.384" y="122.175" width="90.562" height="207.626" style="fill:rgb(46,64,87);"/>
        </g>
        <g transform="matrix(0.0130472,0,0,0.0130472,1354.66,175.86)">
            <path d="M515.569,105.266L502.81,192.653C499.832,211.444 497.755,231.574 496.155,251.839C494.573,230.686 492.648,210.243 490.541,192.311L481.32,105.267L373.303,105.319L434.604,329.802L551.538,329.802L620.384,105.319L515.569,105.266Z" style="fill:rgb(46,64,87);fill-rule:nonzero;"/>
        </g>
        <g transform="matrix(0.0130472,0,0,0.0130472,1344.42,179.916)">
            <path d="M1773.85,52.123L1758.94,52.123L1758.94,56.618L1763.96,56.618L1763.96,73.046L1768.83,73.046L1768.83,56.618L1773.85,56.618L1773.85,52.123Z" style="fill:rgb(62,182,80);fill-rule:nonzero;"/>
        </g>
        <g transform="matrix(0.0130472,0,0,0.0130472,1344.42,179.916)">
            <path d="M1797.36,73.046L1797.11,52.132L1791.51,52.132L1786.83,64.057L1781.8,52.132L1776.01,52.132L1776.01,73.046L1780.51,73.046L1780.51,60.666L1784.79,71.555L1788.41,71.555L1792.65,60.769L1792.65,73.046L1797.36,73.046Z" style="fill:rgb(62,182,80);fill-rule:nonzero;"/>
        </g>
        <g transform="matrix(0.0130472,0,0,0.0130472,1344.42,179.916)">
            <path d="M995.032,381.922C1075.68,381.922 1122.15,336.157 1122.15,271.879C1122.15,208.483 1088.83,174.317 1036.78,147.947C998.978,127.673 988.173,117.664 988.173,104.046C988.173,92.953 995.002,86.226 1005.95,86.226C1021.27,86.123 1029.56,99.972 1026.22,119.412L1110.62,119.816C1121.21,19.96 1058.99,0 1009,0C930.762,0 892.842,41.547 892.842,101.703C892.842,157.223 918.723,197.83 984.729,230.965C1014.53,246.137 1026.38,254.142 1026.38,273.451C1026.38,287.551 1016.34,296.129 997.709,296.129C970.822,296.129 954.357,277.112 956.956,231.21L869.429,246.199C869.429,337.552 919.818,381.922 995.032,381.922Z" style="fill:rgb(62,182,80);fill-rule:nonzero;"/>
        </g>
        <g transform="matrix(0.0130472,0,0,0.0130472,1344.42,179.916)">
            <path d="M1329.07,165.372L1329.07,77.12L1131.57,77.12L1131.57,329.798L1329.07,329.798L1329.07,240.571L1236.39,240.571L1236.39,227.291L1300.19,227.291L1300.19,179.14L1236.39,179.14L1236.39,165.372L1329.07,165.372Z" style="fill:rgb(62,182,80);fill-rule:nonzero;"/>
        </g>
        <g transform="matrix(0.0130472,0,0,0.0130472,1344.42,179.916)">
            <path d="M1535.72,165.372L1535.72,77.12L1338.22,77.12L1338.22,329.798L1535.72,329.798L1535.72,240.571L1443.04,240.571L1443.04,227.291L1506.84,227.291L1506.84,179.14L1443.04,179.14L1443.04,165.372L1535.72,165.372Z" style="fill:rgb(62,182,80);fill-rule:nonzero;"/>
        </g>
        <g transform="matrix(0.0130472,0,0,0.0130472,1344.42,179.916)">
            <path d="M1797.36,77.118L1682.88,77.118L1649.2,135.887L1649.2,77.118L1544.87,77.118L1544.87,329.798L1649.2,329.798L1649.2,284.13L1658.7,270.844L1674.95,329.798L1796.93,329.798L1734.76,164.581L1797.36,77.118Z" style="fill:rgb(62,182,80);fill-rule:nonzero;"/>
        </g>
        <g transform="matrix(0.0130472,0,0,0.0130472,1354.66,175.86)">
            <path d="M840.074,335.438C871.951,335.438 909.624,324.895 926.424,311.023L890.204,234.06C878.74,243.106 863.123,247.477 848.503,247.477C830.865,247.477 817.078,234.616 817.511,215.136C817.945,195.657 830.865,186.723 848.503,186.723C863.427,186.723 871.977,190.208 883.115,197.63L930.439,123.252C907.352,107.605 878.654,99.196 843.625,99.196C774.062,99.196 720.093,136.421 720.093,215.136C720.093,293.817 764.588,335.438 840.074,335.438Z" style="fill:rgb(46,64,87);fill-rule:nonzero;"/>
        </g>
    </g>
</svg>
