<?xml version="1.0" encoding="UTF-8" standalone="no"?>
<!DOCTYPE svg PUBLIC "-//W3C//DTD SVG 1.1//EN" "http://www.w3.org/Graphics/SVG/1.1/DTD/svg11.dtd">
<svg width="100%" height="100%" viewBox="0 0 13 6" version="1.1" xmlns="http://www.w3.org/2000/svg" xmlns:xlink="http://www.w3.org/1999/xlink" xml:space="preserve" xmlns:serif="http://www.serif.com/" style="fill-rule:evenodd;clip-rule:evenodd;stroke-linejoin:round;stroke-miterlimit:2;">
    <g transform="matrix(1,0,0,1,-1355.15,-113.02)">
        <g transform="matrix(4.06577,0,0,4.06577,1355.03,116.02)">
            <path d="M0.029,-0.704L0.029,-0.691C0.073,-0.691 0.083,-0.659 0.083,-0.596L0.083,-0.117C0.083,-0.049 0.072,-0.013 0.029,-0.013L0.029,-0L0.262,-0L0.262,-0.013C0.217,-0.013 0.186,-0.023 0.186,-0.121L0.186,-0.348L0.25,-0.348C0.276,-0.348 0.384,-0.35 0.393,-0.248L0.406,-0.248L0.406,-0.462L0.393,-0.462C0.384,-0.361 0.277,-0.362 0.25,-0.362L0.186,-0.362L0.186,-0.691L0.239,-0.691C0.318,-0.691 0.493,-0.696 0.511,-0.523L0.524,-0.523L0.524,-0.704L0.029,-0.704Z" style="fill:rgb(34,34,34);fill-rule:nonzero;"/>
        </g>
        <g transform="matrix(4.06577,0,0,4.06577,1357.22,116.02)">
            <path d="M0.113,-0.554C0.141,-0.554 0.164,-0.577 0.164,-0.605C0.164,-0.634 0.141,-0.656 0.113,-0.656C0.084,-0.656 0.062,-0.634 0.062,-0.605C0.062,-0.577 0.084,-0.554 0.113,-0.554ZM0.207,-0.013C0.171,-0.022 0.166,-0.037 0.166,-0.093L0.166,-0.471L0.029,-0.442L0.029,-0.43C0.071,-0.419 0.079,-0.405 0.079,-0.37L0.079,-0.093C0.079,-0.042 0.077,-0.024 0.039,-0.013L0.039,-0L0.207,-0L0.207,-0.013Z" style="fill:rgb(34,34,34);fill-rule:nonzero;"/>
        </g>
        <g transform="matrix(4.06577,0,0,4.06577,1358.22,116.02)">
            <path d="M0.48,-0.012C0.445,-0.021 0.439,-0.038 0.439,-0.093L0.439,-0.311C0.439,-0.432 0.382,-0.471 0.301,-0.471C0.238,-0.471 0.169,-0.424 0.148,-0.366L0.148,-0.471L0.01,-0.442L0.01,-0.43C0.052,-0.419 0.06,-0.406 0.06,-0.371L0.06,-0.092C0.06,-0.041 0.059,-0.024 0.021,-0.013L0.021,-0L0.189,-0L0.189,-0.013C0.153,-0.022 0.148,-0.037 0.148,-0.092L0.148,-0.335C0.156,-0.371 0.198,-0.421 0.25,-0.421C0.316,-0.421 0.352,-0.376 0.352,-0.308L0.352,-0.093C0.352,-0.042 0.35,-0.023 0.312,-0.012L0.312,-0L0.48,-0L0.48,-0.012Z" style="fill:rgb(34,34,34);fill-rule:nonzero;"/>
        </g>
        <g transform="matrix(4.06577,0,0,4.06577,1360.27,116.02)">
            <path d="M0.35,-0.04C0.398,-0.109 0.369,-0.19 0.279,-0.246L0.178,-0.309C0.091,-0.364 0.098,-0.458 0.193,-0.458C0.309,-0.458 0.337,-0.376 0.344,-0.317L0.356,-0.317L0.356,-0.439C0.356,-0.439 0.308,-0.471 0.193,-0.471C0.091,-0.471 0.061,-0.414 0.061,-0.414C0.021,-0.345 0.043,-0.285 0.139,-0.221L0.24,-0.16C0.316,-0.11 0.329,-0.004 0.223,-0.004C0.093,-0.004 0.068,-0.101 0.061,-0.167L0.048,-0.167L0.048,-0.031C0.048,-0.031 0.102,0.009 0.223,0.009C0.316,0.009 0.35,-0.04 0.35,-0.04Z" style="fill:rgb(34,34,34);fill-rule:nonzero;"/>
        </g>
        <g transform="matrix(4.06577,0,0,4.06577,1361.97,116.02)">
            <path d="M0.294,-0.082C0.286,-0.061 0.262,-0.04 0.233,-0.04C0.186,-0.04 0.157,-0.067 0.157,-0.147L0.157,-0.449L0.273,-0.449L0.276,-0.462L0.157,-0.462L0.157,-0.618L0.07,-0.604L0.07,-0.462L0.017,-0.462L0.019,-0.449L0.07,-0.449L0.07,-0.144C0.07,-0.023 0.114,0.009 0.187,0.009C0.245,0.009 0.29,-0.033 0.304,-0.077L0.294,-0.082Z" style="fill:rgb(34,34,34);fill-rule:nonzero;"/>
        </g>
        <g transform="matrix(4.06577,0,0,4.06577,1363.25,116.02)">
            <path d="M0.297,-0.247L0.297,-0.098C0.287,-0.074 0.262,-0.036 0.209,-0.036C0.148,-0.036 0.13,-0.086 0.13,-0.115C0.13,-0.175 0.181,-0.219 0.297,-0.247ZM0.432,-0.038C0.386,-0.038 0.387,-0.101 0.387,-0.101L0.387,-0.271C0.387,-0.39 0.357,-0.471 0.248,-0.471C0.248,-0.471 0.199,-0.474 0.156,-0.452C0.102,-0.423 0.085,-0.393 0.078,-0.378C0.07,-0.364 0.072,-0.344 0.083,-0.329C0.098,-0.308 0.127,-0.304 0.147,-0.32C0.168,-0.335 0.172,-0.365 0.157,-0.385C0.149,-0.396 0.138,-0.401 0.126,-0.403C0.12,-0.404 0.126,-0.423 0.165,-0.442C0.245,-0.479 0.297,-0.421 0.297,-0.318L0.297,-0.26C0.126,-0.216 0.041,-0.194 0.041,-0.094C0.041,0.009 0.155,0.009 0.155,0.009C0.225,0.009 0.283,-0.027 0.297,-0.075C0.303,0.011 0.382,0.009 0.382,0.009C0.434,0.009 0.468,-0.029 0.474,-0.059L0.462,-0.064C0.455,-0.038 0.432,-0.038 0.432,-0.038Z" style="fill:rgb(34,34,34);fill-rule:nonzero;"/>
        </g>
        <g transform="matrix(4.06577,0,0,4.06577,1365.23,116.02)">
            <path d="M0.395,-0.138C0.395,-0.068 0.345,-0.02 0.279,-0.02C0.192,-0.02 0.141,-0.092 0.141,-0.251C0.141,-0.411 0.208,-0.458 0.274,-0.458C0.335,-0.458 0.395,-0.41 0.395,-0.313L0.395,-0.138ZM0.532,-0.023C0.492,-0.023 0.481,-0.029 0.481,-0.078L0.481,-0.738L0.344,-0.711L0.344,-0.698C0.385,-0.69 0.395,-0.677 0.395,-0.642L0.395,-0.434C0.362,-0.457 0.321,-0.471 0.272,-0.471C0.138,-0.471 0.037,-0.392 0.037,-0.237C0.037,-0.097 0.114,0.009 0.248,0.009C0.297,0.009 0.364,-0.014 0.395,-0.065L0.395,-0.01C0.395,-0.01 0.395,0.013 0.423,0.008L0.532,-0.01L0.532,-0.023Z" style="fill:rgb(34,34,34);fill-rule:nonzero;"/>
        </g>
        <g transform="matrix(2.69584,0,0,2.69584,1355.07,118.641)">
            <path d="M0.419,-0.513C0.419,-0.335 0.333,-0.336 0.22,-0.336L0.189,-0.336L0.189,-0.691L0.22,-0.691C0.327,-0.691 0.419,-0.695 0.419,-0.513ZM0.637,-0.013C0.611,-0.015 0.548,-0.025 0.53,-0.101C0.478,-0.32 0.409,-0.327 0.343,-0.33C0.451,-0.337 0.529,-0.377 0.529,-0.513C0.529,-0.68 0.419,-0.704 0.22,-0.704L0.029,-0.704L0.029,-0.691C0.073,-0.691 0.091,-0.677 0.091,-0.615L0.091,-0.117C0.091,-0.033 0.072,-0.013 0.029,-0.013L0.029,-0L0.253,-0L0.253,-0.013C0.211,-0.013 0.189,-0.035 0.189,-0.104L0.189,-0.323L0.236,-0.323C0.262,-0.323 0.363,-0.323 0.391,-0.218C0.448,-0.001 0.433,-0 0.561,-0L0.637,-0L0.637,-0.013Z" style="fill:rgb(34,34,34);fill-rule:nonzero;"/>
        </g>
        <g transform="matrix(2.69584,0,0,2.69584,1356.8,118.641)">
            <path d="M0.297,-0.247L0.297,-0.098C0.287,-0.074 0.262,-0.036 0.209,-0.036C0.148,-0.036 0.13,-0.086 0.13,-0.115C0.13,-0.175 0.181,-0.219 0.297,-0.247ZM0.432,-0.038C0.386,-0.038 0.387,-0.101 0.387,-0.101L0.387,-0.271C0.387,-0.39 0.357,-0.471 0.248,-0.471C0.248,-0.471 0.199,-0.474 0.156,-0.452C0.102,-0.423 0.085,-0.393 0.078,-0.378C0.07,-0.364 0.072,-0.344 0.083,-0.329C0.098,-0.308 0.127,-0.304 0.147,-0.32C0.168,-0.335 0.172,-0.365 0.157,-0.385C0.149,-0.396 0.138,-0.401 0.126,-0.403C0.12,-0.404 0.126,-0.423 0.165,-0.442C0.245,-0.479 0.297,-0.421 0.297,-0.318L0.297,-0.26C0.126,-0.216 0.041,-0.194 0.041,-0.094C0.041,0.009 0.155,0.009 0.155,0.009C0.225,0.009 0.283,-0.027 0.297,-0.075C0.303,0.011 0.382,0.009 0.382,0.009C0.434,0.009 0.468,-0.029 0.474,-0.059L0.462,-0.064C0.455,-0.038 0.432,-0.038 0.432,-0.038Z" style="fill:rgb(34,34,34);fill-rule:nonzero;"/>
        </g>
        <g transform="matrix(2.69584,0,0,2.69584,1358.11,118.641)">
            <path d="M0.286,-0.468C0.246,-0.463 0.189,-0.434 0.152,-0.366L0.152,-0.471L0.014,-0.442L0.014,-0.43C0.055,-0.419 0.064,-0.405 0.064,-0.37L0.064,-0.093C0.064,-0.041 0.062,-0.024 0.024,-0.013L0.024,-0L0.193,-0L0.193,-0.013C0.157,-0.022 0.152,-0.037 0.152,-0.093L0.152,-0.342C0.183,-0.409 0.25,-0.433 0.247,-0.416C0.244,-0.403 0.249,-0.389 0.258,-0.378C0.279,-0.354 0.313,-0.352 0.336,-0.371C0.36,-0.391 0.363,-0.425 0.343,-0.449C0.329,-0.465 0.304,-0.47 0.286,-0.468Z" style="fill:rgb(34,34,34);fill-rule:nonzero;"/>
        </g>
        <g transform="matrix(2.69584,0,0,2.69584,1359.09,118.641)">
            <path d="M0.13,-0.253C0.13,-0.379 0.194,-0.458 0.251,-0.458C0.299,-0.458 0.364,-0.399 0.364,-0.253L0.13,-0.253ZM0.422,-0.123C0.404,-0.074 0.333,-0.037 0.273,-0.043C0.194,-0.051 0.134,-0.105 0.13,-0.24L0.45,-0.24C0.45,-0.397 0.37,-0.471 0.254,-0.471C0.13,-0.471 0.036,-0.375 0.036,-0.227C0.036,-0.095 0.125,0.009 0.25,0.009C0.368,0.009 0.423,-0.071 0.434,-0.118L0.422,-0.123Z" style="fill:rgb(34,34,34);fill-rule:nonzero;"/>
        </g>
        <g transform="matrix(2.69584,0,0,2.69584,1361.09,118.641)">
            <path d="M0.603,-0.207C0.59,-0.055 0.468,-0.004 0.387,-0.004C0.286,-0.004 0.168,-0.045 0.168,-0.352C0.168,-0.654 0.283,-0.7 0.387,-0.7C0.468,-0.7 0.575,-0.662 0.603,-0.497L0.616,-0.497L0.628,-0.652C0.565,-0.703 0.49,-0.713 0.387,-0.713C0.18,-0.713 0.04,-0.577 0.04,-0.352C0.04,-0.129 0.18,0.009 0.387,0.009C0.494,0.009 0.554,-0.004 0.628,-0.053L0.616,-0.207L0.603,-0.207Z" style="fill:rgb(34,34,34);fill-rule:nonzero;"/>
        </g>
        <g transform="matrix(2.69584,0,0,2.69584,1362.9,118.641)">
            <path d="M0.398,-0.231C0.398,-0.05 0.347,-0.004 0.271,-0.004C0.194,-0.004 0.142,-0.05 0.142,-0.231C0.142,-0.412 0.194,-0.458 0.271,-0.458C0.347,-0.458 0.398,-0.412 0.398,-0.231ZM0.501,-0.231C0.501,-0.363 0.424,-0.471 0.271,-0.471C0.119,-0.471 0.04,-0.363 0.04,-0.231C0.04,-0.1 0.119,0.009 0.271,0.009C0.424,0.009 0.501,-0.1 0.501,-0.231Z" style="fill:rgb(34,34,34);fill-rule:nonzero;"/>
        </g>
        <g transform="matrix(2.69584,0,0,2.69584,1364.36,118.641)">
            <path d="M0.113,-0.554C0.141,-0.554 0.164,-0.577 0.164,-0.605C0.164,-0.634 0.141,-0.656 0.113,-0.656C0.084,-0.656 0.062,-0.634 0.062,-0.605C0.062,-0.577 0.084,-0.554 0.113,-0.554ZM0.207,-0.013C0.171,-0.022 0.166,-0.037 0.166,-0.093L0.166,-0.471L0.029,-0.442L0.029,-0.43C0.071,-0.419 0.079,-0.405 0.079,-0.37L0.079,-0.093C0.079,-0.042 0.077,-0.024 0.039,-0.013L0.039,-0L0.207,-0L0.207,-0.013Z" style="fill:rgb(34,34,34);fill-rule:nonzero;"/>
        </g>
        <g transform="matrix(2.69584,0,0,2.69584,1365.02,118.641)">
            <path d="M0.48,-0.012C0.445,-0.021 0.439,-0.038 0.439,-0.093L0.439,-0.311C0.439,-0.432 0.382,-0.471 0.301,-0.471C0.238,-0.471 0.169,-0.424 0.148,-0.366L0.148,-0.471L0.01,-0.442L0.01,-0.43C0.052,-0.419 0.06,-0.406 0.06,-0.371L0.06,-0.092C0.06,-0.041 0.059,-0.024 0.021,-0.013L0.021,-0L0.189,-0L0.189,-0.013C0.153,-0.022 0.148,-0.037 0.148,-0.092L0.148,-0.335C0.156,-0.371 0.198,-0.421 0.25,-0.421C0.316,-0.421 0.352,-0.376 0.352,-0.308L0.352,-0.093C0.352,-0.042 0.35,-0.023 0.312,-0.012L0.312,-0L0.48,-0L0.48,-0.012Z" style="fill:rgb(34,34,34);fill-rule:nonzero;"/>
        </g>
        <g transform="matrix(2.69584,0,0,2.69584,1366.38,118.641)">
            <path d="M0.35,-0.04C0.398,-0.109 0.369,-0.19 0.279,-0.246L0.178,-0.309C0.091,-0.364 0.098,-0.458 0.193,-0.458C0.309,-0.458 0.337,-0.376 0.344,-0.317L0.356,-0.317L0.356,-0.439C0.356,-0.439 0.308,-0.471 0.193,-0.471C0.091,-0.471 0.061,-0.414 0.061,-0.414C0.021,-0.345 0.043,-0.285 0.139,-0.221L0.24,-0.16C0.316,-0.11 0.329,-0.004 0.223,-0.004C0.093,-0.004 0.068,-0.101 0.061,-0.167L0.048,-0.167L0.048,-0.031C0.048,-0.031 0.102,0.009 0.223,0.009C0.316,0.009 0.35,-0.04 0.35,-0.04Z" style="fill:rgb(34,34,34);fill-rule:nonzero;"/>
        </g>
    </g>
</svg>
