<?xml version="1.0" encoding="UTF-8" standalone="no"?>
<!DOCTYPE svg PUBLIC "-//W3C//DTD SVG 1.1//EN" "http://www.w3.org/Graphics/SVG/1.1/DTD/svg11.dtd">
<svg width="100%" height="100%" viewBox="0 0 3082 397" version="1.1" xmlns="http://www.w3.org/2000/svg" xmlns:xlink="http://www.w3.org/1999/xlink" xml:space="preserve" xmlns:serif="http://www.serif.com/" style="fill-rule:evenodd;clip-rule:evenodd;stroke-linejoin:round;stroke-miterlimit:2;">
    <g>
        <path d="M106.273,296.868L106.273,0L0,0L0,389.293L279.079,389.293L279.079,296.868L106.273,296.868Z" style="fill:rgb(255,181,62);fill-rule:nonzero;"/>
        <rect x="315.703" y="100.246" width="99.07" height="289.047" style="fill:rgb(255,181,62);"/>
        <path d="M679.034,100.246L679.034,231.479L532.223,97.476L480.753,97.476L480.753,389.293L573.178,389.293L573.178,256.954L719.989,392.063L770.353,392.063L770.353,100.246L679.034,100.246Z" style="fill:rgb(255,181,62);fill-rule:nonzero;"/>
        <path d="M1015.78,241.442L1015.78,302.961C1006.91,306.836 997.493,306.836 989.178,306.836C950.933,306.836 924.326,285.226 924.326,248.092C924.326,210.964 952.039,187.137 996.935,187.137C1027.4,187.137 1045.11,194.34 1060.06,203.761L1102.12,125.146C1081.64,112.42 1046.77,95.265 986.961,95.265C887.794,95.265 821.933,162.784 821.933,245.875C821.933,332.847 887.794,394.28 983.633,394.28C1045.67,394.28 1088.28,371.585 1105.99,357.2L1105.99,241.442L1015.78,241.442Z" style="fill:rgb(255,181,62);fill-rule:nonzero;"/>
        <path d="M1309.29,396.491C1400.68,396.491 1470.43,331.742 1470.43,244.217C1470.43,155.033 1401.8,92.495 1309.29,92.495C1216.78,92.495 1147.04,156.692 1147.04,244.217C1147.04,329.53 1215.67,396.491 1309.29,396.491ZM1309.29,305.177C1272.71,305.177 1249.99,276.911 1249.99,244.217C1249.99,208.194 1273.82,182.703 1309.29,182.703C1344.76,182.703 1367.48,207.089 1367.48,244.217C1367.48,278.575 1343.65,305.177 1309.29,305.177Z" style="fill:rgb(255,181,62);fill-rule:nonzero;"/>
    </g>
    <g>
        <path d="M1677.78,0L1525.51,0L1525.51,389.293L1629.01,389.293L1629.01,289.6L1672.79,289.047C1778.04,288.489 1841.69,230.379 1841.69,148.399C1841.69,61.432 1779.69,0 1677.78,0ZM1670.57,198.834L1629.01,198.834L1629.01,89.655L1670.57,89.655C1716.57,89.655 1735.97,117.363 1735.97,146.182C1735.97,172.784 1717.68,198.834 1670.57,198.834Z" style="fill:rgb(224,90,81);fill-rule:nonzero;"/>
        <path d="M2056.1,389.293L2160.71,389.293L2100.38,301.248C2131.92,282.434 2150.74,251.447 2150.74,213.755C2150.74,150.605 2106.47,100.246 2027.83,100.246L1886.62,100.246L1886.62,389.293L1979.04,389.293L1979.04,321.72L2011.2,321.72L2056.1,389.293ZM1979.04,179.933L2017.85,179.933C2046.12,179.933 2056.65,196.568 2056.65,212.091C2056.65,227.62 2043.9,243.144 2021.18,243.144L1979.04,243.144L1979.04,179.933Z" style="fill:rgb(224,90,81);fill-rule:nonzero;"/>
        <path d="M2348.5,396.491C2439.9,396.491 2509.64,331.742 2509.64,244.217C2509.64,155.033 2441.01,92.495 2348.5,92.495C2255.99,92.495 2186.25,156.692 2186.25,244.217C2186.25,329.53 2254.89,396.491 2348.5,396.491ZM2348.5,305.177C2311.92,305.177 2289.2,276.911 2289.2,244.217C2289.2,208.194 2313.03,182.703 2348.5,182.703C2383.97,182.703 2406.69,207.089 2406.69,244.217C2406.69,278.575 2382.86,305.177 2348.5,305.177Z" style="fill:rgb(224,90,81);fill-rule:nonzero;"/>
        <path d="M2720.69,100.246L2687.46,225.945L2678.05,265.258L2668.08,225.945L2628.77,100.246L2514.7,100.246L2635.97,389.293L2714.6,389.293L2830.88,100.246L2720.69,100.246Z" style="fill:rgb(224,90,81);fill-rule:nonzero;"/>
        <path d="M3081.22,178.275L3081.22,100.246L2861.41,100.246L2861.41,389.293L3081.22,389.293L3081.22,310.717L2953.84,310.717L2953.84,280.738L3064.61,280.738L3064.61,207.143L2953.84,207.143L2953.84,178.275L3081.22,178.275Z" style="fill:rgb(224,90,81);fill-rule:nonzero;"/>
    </g>
    <g>
        <path d="M3042.27,55.042L3013.27,55.042L3013.27,62.603L3023.4,62.603L3023.4,86.696L3032,86.696L3032,62.603L3042.27,62.603L3042.27,55.042Z" style="fill:rgb(224,90,81);fill-rule:nonzero;"/>
        <path d="M3081.22,86.696L3080.41,55.042L3075.06,55.042L3063.53,74.452L3052.02,55.042L3046.39,55.042L3045.63,86.696L3054.04,86.696L3054.09,72.153L3060.75,84.175L3065.97,84.175L3072.72,71.926L3072.8,86.696L3081.22,86.696Z" style="fill:rgb(224,90,81);fill-rule:nonzero;"/>
    </g>
</svg>
